<svg id="Layer_1" xmlns="http://www.w3.org/2000/svg" viewBox="0 0 136 136"><style>.st0{fill:#046ab4}</style><path class="st0" d="M81.7 83.2c0-.9-.7-1.6-1.6-1.6-.9 0-1.6.7-1.6 1.6v3.2c0 .9.7 1.6 1.6 1.6.9 0 1.6-.7 1.6-1.6v-3.2zm-1.6 17.5c-.9 0-1.6.7-1.6 1.6v6.3c0 .9.7 1.6 1.6 1.6.9 0 1.6-.7 1.6-1.6v-6.3c0-.9-.7-1.6-1.6-1.6zM88 64.2c0-.9-.7-1.6-1.6-1.6-.9 0-1.6.7-1.6 1.6v3.2c0 .9.7 1.6 1.6 1.6.9 0 1.6-.7 1.6-1.6v-3.2zm-6.3 9.5c0-.9-.7-1.6-1.6-1.6-.9 0-1.6.7-1.6 1.6v3.2c0 .9.7 1.6 1.6 1.6.9 0 1.6-.7 1.6-1.6v-3.2zm0 19c0-.9-.7-1.6-1.6-1.6-.9 0-1.6.7-1.6 1.6v3.2c0 .9.7 1.6 1.6 1.6.9 0 1.6-.7 1.6-1.6v-3.2zm6.3-19c0-.9-.7-1.6-1.6-1.6-.9 0-1.6.7-1.6 1.6v3.2c0 .9.7 1.6 1.6 1.6.9 0 1.6-.7 1.6-1.6v-3.2zm-12.7-9.5c0-.9-.7-1.6-1.6-1.6-.9 0-1.6.7-1.6 1.6v3.2c0 .9.7 1.6 1.6 1.6.9 0 1.6-.7 1.6-1.6v-3.2zm6.4 0c0-.9-.7-1.6-1.6-1.6-.9 0-1.6.7-1.6 1.6v3.2c0 .9.7 1.6 1.6 1.6.9 0 1.6-.7 1.6-1.6v-3.2zM88 48.4v-3.2c0-.9-.7-1.6-1.6-1.6-.9 0-1.6.7-1.6 1.6v3.2c0 .9.7 1.6 1.6 1.6s1.6-.7 1.6-1.6zM75.3 73.7c0-.9-.7-1.6-1.6-1.6-.9 0-1.6.7-1.6 1.6v3.2c0 .9.7 1.6 1.6 1.6.9 0 1.6-.7 1.6-1.6v-3.2zm19-28.5c0-.9-.7-1.6-1.6-1.6-.9 0-1.6.7-1.6 1.6v3.2c0 .9.7 1.6 1.6 1.6.9 0 1.6-.7 1.6-1.6v-3.2zM73.7 81.7c-.9 0-1.6.7-1.6 1.6v3.2c0 .9.7 1.6 1.6 1.6.9 0 1.6-.7 1.6-1.6v-3.2c0-.9-.7-1.6-1.6-1.6zm27 11c0-.9-.7-1.6-1.6-1.6-.9 0-1.6.7-1.6 1.6v3.2c0 .9.7 1.6 1.6 1.6.9 0 1.6-.7 1.6-1.6v-3.2zm-1.6 8c-.9 0-1.6.7-1.6 1.6v6.3c0 .9.7 1.6 1.6 1.6.9 0 1.6-.7 1.6-1.6v-6.3c0-.9-.7-1.6-1.6-1.6zm6.3-19c-.9 0-1.6.7-1.6 1.6v3.2c0 .9.7 1.6 1.6 1.6.9 0 1.6-.7 1.6-1.6v-3.2c0-.9-.7-1.6-1.6-1.6z"/><path class="st0" d="M80.1 50c.9 0 1.6-.7 1.6-1.6v-6.7l15.8-4v26.5c0 .7.4 1.3 1 1.5l11.6 4.4v16.3c0 .9.7 1.6 1.6 1.6.9 0 1.6-.7 1.6-1.6V69c0-.7-.4-1.3-1-1.5l-11.6-4.4V32.5c0-.9-.7-1.6-1.6-1.6-.9 0-1.6.7-1.6 1.6v1.9l-17.8 4.5c-.7.2-1.2.8-1.2 1.5v7.9c0 1 .7 1.7 1.6 1.7z"/><path class="st0" d="M107 73.7c0-.9-.7-1.6-1.6-1.6-.9 0-1.6.7-1.6 1.6v3.2c0 .9.7 1.6 1.6 1.6.9 0 1.6-.7 1.6-1.6v-3.2zm-6.3 0c0-.9-.7-1.6-1.6-1.6-.9 0-1.6.7-1.6 1.6v3.2c0 .9.7 1.6 1.6 1.6.9 0 1.6-.7 1.6-1.6v-3.2zM88 92.7c0-.9-.7-1.6-1.6-1.6-.9 0-1.6.7-1.6 1.6v3.2c0 .9.7 1.6 1.6 1.6.9 0 1.6-.7 1.6-1.6v-3.2zm12.7-9.5c0-.9-.7-1.6-1.6-1.6-.9 0-1.6.7-1.6 1.6v3.2c0 .9.7 1.6 1.6 1.6.9 0 1.6-.7 1.6-1.6v-3.2zm-14.3 17.5c-.9 0-1.6.7-1.6 1.6v6.3c0 .9.7 1.6 1.6 1.6.9 0 1.6-.7 1.6-1.6v-6.3c0-.9-.7-1.6-1.6-1.6zM88 83.2c0-.9-.7-1.6-1.6-1.6-.9 0-1.6.7-1.6 1.6v3.2c0 .9.7 1.6 1.6 1.6.9 0 1.6-.7 1.6-1.6v-3.2z"/><path class="st0" d="M92.7 110.2c.9 0 1.6-.7 1.6-1.6V57.9c0-.7-.5-1.4-1.2-1.5l-25.3-6.3c-.5-.1-1 0-1.4.3s-.6.8-.6 1.2v34.8c0 .9.7 1.6 1.6 1.6.9 0 1.6-.7 1.6-1.6V53.6l22.2 5.5v49.4c0 1 .7 1.7 1.5 1.7zM56.3 54.7c0-.9-.7-1.6-1.6-1.6-.9 0-1.6.7-1.6 1.6v3.2c0 .9.7 1.6 1.6 1.6.9 0 1.6-.7 1.6-1.6v-3.2zm0-9.5c0-.9-.7-1.6-1.6-1.6-.9 0-1.6.7-1.6 1.6v3.2c0 .9.7 1.6 1.6 1.6.9 0 1.6-.7 1.6-1.6v-3.2zM43.7 92.7c0-.9-.7-1.6-1.6-1.6s-1.6.7-1.6 1.6v3.2c0 .9.7 1.6 1.6 1.6s1.6-.7 1.6-1.6v-3.2z"/><path class="st0" d="M29.4 78.5c.9 0 1.6-.7 1.6-1.6V69h15.8v39.6c0 .9.7 1.6 1.6 1.6.9 0 1.6-.7 1.6-1.6V67.4c0-.9-.7-1.6-1.6-1.6h-19c-.9 0-1.6.7-1.6 1.6v9.5c0 .9.7 1.6 1.6 1.6zm17.4-23.8v3.2c0 .9.7 1.6 1.6 1.6.9 0 1.6-.7 1.6-1.6v-3.2c0-.9-.7-1.6-1.6-1.6-.9.1-1.6.8-1.6 1.6zm9.5-19c0-.9-.7-1.6-1.6-1.6-.9 0-1.6.7-1.6 1.6v3.2c0 .9.7 1.6 1.6 1.6.9 0 1.6-.7 1.6-1.6v-3.2z"/><path class="st0" d="M42.1 100.7c-.9 0-1.6.7-1.6 1.6v6.3c0 .9.7 1.6 1.6 1.6s1.6-.7 1.6-1.6v-6.3c0-.9-.7-1.6-1.6-1.6z"/><path class="st0" d="M114.9 113.3h-3.2v-9.7c2.7-.7 4.8-3.2 4.8-6.1 0-3.5-2.8-6.3-6.3-6.3s-6.3 2.8-6.3 6.3c0 2.9 2 5.4 4.8 6.1v9.7H69v-6.5c3.6-.7 6.3-3.9 6.3-7.8 0-4.4-3.6-7.9-7.9-7.9-4.4 0-7.9 3.6-7.9 7.9 0 3.8 2.7 7 6.3 7.8v6.5H31v-16c3.6-.7 6.3-3.9 6.3-7.8 0-4.4-3.6-7.9-7.9-7.9-4.4 0-7.9 3.6-7.9 7.9 0 3.8 2.7 7 6.3 7.8v16h-4.7c-.9 0-1.6.7-1.6 1.6 0 .9.7 1.6 1.6 1.6h91.8c.9 0 1.6-.7 1.6-1.6 0-.9-.7-1.6-1.6-1.6zM24.7 89.6c0-2.6 2.1-4.8 4.8-4.8 2.6 0 4.8 2.1 4.8 4.8 0 2.6-2.1 4.8-4.8 4.8-2.7-.1-4.8-2.2-4.8-4.8zm38 9.5c0-2.6 2.1-4.8 4.8-4.8 2.6 0 4.7 2.1 4.7 4.8 0 2.6-2.1 4.8-4.7 4.8-2.7-.1-4.8-2.2-4.8-4.8zm44.3-1.6c0-1.7 1.4-3.2 3.2-3.2s3.2 1.4 3.2 3.2c0 1.7-1.4 3.2-3.2 3.2s-3.2-1.5-3.2-3.2z"/><path class="st0" d="M34.2 102.2v6.3c0 .9.7 1.6 1.6 1.6s1.6-.7 1.6-1.6v-6.3c0-.9-.7-1.6-1.6-1.6-.9.1-1.6.8-1.6 1.6zm9.5-28.5c0-.9-.7-1.6-1.6-1.6s-1.6.7-1.6 1.6v3.2c0 .9.7 1.6 1.6 1.6s1.6-.7 1.6-1.6v-3.2zm0 9.5c0-.9-.7-1.6-1.6-1.6s-1.6.7-1.6 1.6v3.2c0 .9.7 1.6 1.6 1.6s1.6-.7 1.6-1.6v-3.2zm-9.5-9.5v3.2c0 .9.7 1.6 1.6 1.6s1.6-.7 1.6-1.6v-3.2c0-.9-.7-1.6-1.6-1.6-.9.1-1.6.8-1.6 1.6zm22.1 9.5c0-.9-.7-1.6-1.6-1.6-.9 0-1.6.7-1.6 1.6v3.2c0 .9.7 1.6 1.6 1.6.9 0 1.6-.7 1.6-1.6v-3.2zm6.4-19c0-.9-.7-1.6-1.6-1.6-.9 0-1.6.7-1.6 1.6v3.2c0 .9.7 1.6 1.6 1.6.9 0 1.6-.7 1.6-1.6v-3.2zm0-9.5c0-.9-.7-1.6-1.6-1.6-.9 0-1.6.7-1.6 1.6v3.2c0 .9.7 1.6 1.6 1.6.9 0 1.6-.7 1.6-1.6v-3.2zm0 19c0-.9-.7-1.6-1.6-1.6-.9 0-1.6.7-1.6 1.6v3.2c0 .9.7 1.6 1.6 1.6.9 0 1.6-.7 1.6-1.6v-3.2zm-1.6 8c-.9 0-1.6.7-1.6 1.6v3.2c0 .9.7 1.6 1.6 1.6.9 0 1.6-.7 1.6-1.6v-3.2c0-.9-.7-1.6-1.6-1.6zm1.6-36.5c0-.9-.7-1.6-1.6-1.6-.9 0-1.6.7-1.6 1.6v3.2c0 .9.7 1.6 1.6 1.6.9 0 1.6-.7 1.6-1.6v-3.2zm-6.4 47.5c0-.9-.7-1.6-1.6-1.6-.9 0-1.6.7-1.6 1.6v3.2c0 .9.7 1.6 1.6 1.6.9 0 1.6-.7 1.6-1.6v-3.2z"/><path class="st0" d="M42.1 62.7c.9 0 1.6-.7 1.6-1.6V49.4l5.5-2.7c.5-.3.9-.8.9-1.4V32l7.9-4 7.9 4v13.3c0 .9.7 1.6 1.6 1.6.9 0 1.6-.7 1.6-1.6V31c0-.6-.3-1.1-.9-1.4l-8.6-4.3v-2.2c0-.9-.7-1.6-1.6-1.6-.9 0-1.6.7-1.6 1.6v2.2l-8.6 4.3c-.5.3-.9.8-.9 1.4v13.3L41.4 47c-.5.3-.9.8-.9 1.4v12.7c0 .9.7 1.6 1.6 1.6zm14.2 11c0-.9-.7-1.6-1.6-1.6-.9 0-1.6.7-1.6 1.6v3.2c0 .9.7 1.6 1.6 1.6.9 0 1.6-.7 1.6-1.6v-3.2zm-1.6 27c-.9 0-1.6.7-1.6 1.6v6.3c0 .9.7 1.6 1.6 1.6.9 0 1.6-.7 1.6-1.6v-6.3c0-.9-.7-1.6-1.6-1.6z"/><path class="st0" d="M62.7 35.7c0-.9-.7-1.6-1.6-1.6-.9 0-1.6.7-1.6 1.6v3.2c0 .9.7 1.6 1.6 1.6.9 0 1.6-.7 1.6-1.6v-3.2zm-6.4 28.5c0-.9-.7-1.6-1.6-1.6-.9 0-1.6.7-1.6 1.6v3.2c0 .9.7 1.6 1.6 1.6.9 0 1.6-.7 1.6-1.6v-3.2z"/></svg>