<svg xmlns="http://www.w3.org/2000/svg" width="73" height="79" viewBox="0 0 73 79"><defs><style>.cls-1{fill:#0169b4;fill-rule:evenodd}</style></defs><path class="cls-1" d="M64.85 56.92c-.02 0-.04-.01-.06-.01l-12.91-2.6a4.017 4.017 0 0 0-1.76-3.56l-1.93-1.3a25.238 25.238 0 0 0 7.2-18.14 28.969 28.969 0 0 0-.31-4.18h4.45a1.28 1.28 0 0 0 0-2.56h-1.44v-1.45a21.916 21.916 0 0 0-4.9-13.81 22.242 22.242 0 0 0-1.87-2.01v-.56a1.274 1.274 0 0 0-1.27-1.28 1.232 1.232 0 0 0-.68.2 21.615 21.615 0 0 0-7.61-3.65A2.636 2.636 0 0 0 39.21 0h-5.42a2.636 2.636 0 0 0-2.55 2.01 21.615 21.615 0 0 0-7.61 3.65 1.232 1.232 0 0 0-.68-.2 1.274 1.274 0 0 0-1.27 1.28v.56a22.242 22.242 0 0 0-1.87 2.01 21.926 21.926 0 0 0-4.91 13.81v1.45h-1.43a1.28 1.28 0 0 0 0 2.56h4.45a28.969 28.969 0 0 0-.31 4.18 25.238 25.238 0 0 0 7.2 18.14l-1.93 1.3a4.017 4.017 0 0 0-1.76 3.56l-12.91 2.6c-.02 0-.04.01-.06.01A10.808 10.808 0 0 0 0 67.44v7.55A4 4 0 0 0 3.98 79h65.04A4 4 0 0 0 73 74.99v-7.55a10.808 10.808 0 0 0-8.15-10.52zm-46.05.47l3.16-.64 5.11 10.29a1.434 1.434 0 0 0 1.1 1.02 1.231 1.231 0 0 0 .2.02 1.257 1.257 0 0 0 .89-.37q.66-.645 1.29-1.2a12.06 12.06 0 0 0 11.9 0q.63.555 1.29 1.2a1.257 1.257 0 0 0 .89.37 1.231 1.231 0 0 0 .2-.02 1.434 1.434 0 0 0 1.1-1.02l5.11-10.29 4.51.91v18.78H18.8V57.39zm-2.54 19.05h-2.88V58.48l2.88-.58v18.54zM36.5 62.7a20.124 20.124 0 0 1 3.72 2.07 9.6 9.6 0 0 1-7.44 0 20.124 20.124 0 0 1 3.72-2.07zm21.59-4.53l2.88.58v17.69h-2.88V58.17zm-8.89-3.44c-2.71 5.46-4.18 8.43-4.95 9.97a25.254 25.254 0 0 0-5.52-3.79l8.77-8.84 1.21.81a1.459 1.459 0 0 1 .49 1.85zm6.35-31.61v1.45h-4.23V11.06a19.294 19.294 0 0 1 4.23 12.06zm-13.71 1.45V4.69a19.157 19.157 0 0 1 6.94 3.76v16.12h-6.94zM33.79 2.56h5.42a.079.079 0 0 1 .08.08v21.93H33.7V2.64a.088.088 0 0 1 .09-.08zm-9.57 22.01V8.45a19.157 19.157 0 0 1 6.94-3.76v19.88h-6.94zm-6.77-1.45a19.294 19.294 0 0 1 4.23-12.06v13.51h-4.23v-1.45zm35.05 4.01a25.261 25.261 0 0 1 .34 4.18v.09c-.02 0-.05-.01-.08-.01h-4.15v-1.45a1.28 1.28 0 0 0-1.27-1.28h-8.13a1.28 1.28 0 0 0-1.27 1.28v.36a3.975 3.975 0 0 0-2.88 0v-.36a1.28 1.28 0 0 0-1.27-1.28h-8.13a1.28 1.28 0 0 0-1.27 1.28v1.45h-4.15c-.03 0-.06.01-.08.01v-.09a25.261 25.261 0 0 1 .34-4.18h32zm-32.21 6.82h4.1v.09a1.27 1.27 0 1 0 2.54 0v-2.82h1.52v1.45a1.27 1.27 0 1 0 2.54 0v-1.45h1.53v2.82a1.27 1.27 0 1 0 2.54 0 1.44 1.44 0 1 1 2.88 0 1.27 1.27 0 1 0 2.54 0v-2.82H42v1.45a1.27 1.27 0 1 0 2.54 0v-1.45h1.53v2.82a1.27 1.27 0 1 0 2.54 0v-.09h4.1c-1.04 10.1-7.91 17.92-16.21 17.92s-15.17-7.82-16.21-17.92zM36.5 54.43a15.844 15.844 0 0 0 6.44-1.38l-6.44 6.48-6.44-6.48a15.844 15.844 0 0 0 6.44 1.38zm-12.21-1.55l1.21-.81 8.77 8.84a25.254 25.254 0 0 0-5.52 3.79c-.77-1.54-2.24-4.51-4.95-9.97a1.459 1.459 0 0 1 .49-1.85zM2.54 74.99v-7.55a8.268 8.268 0 0 1 6.2-8.03l2.1-.42v17.45H3.98a1.449 1.449 0 0 1-1.44-1.45zm67.92 0a1.449 1.449 0 0 1-1.44 1.45h-5.51V59.26l.75.15a8.268 8.268 0 0 1 6.2 8.03v7.55zm0 0L30.37 44.62a12.408 12.408 0 0 0 12.26 0 1.3 1.3 0 0 0 .34-1.78 1.253 1.253 0 0 0-1.76-.34 9.99 9.99 0 0 1-9.42 0 1.252 1.252 0 0 0-1.76.34 1.3 1.3 0 0 0 .34 1.78zm0 0"/></svg>